<svg width="261" height="261" viewBox="0 0 261 261" fill="none" xmlns="http://www.w3.org/2000/svg">
<g filter="url(#filter0_d_25_417)">
<rect x="40.724" y="36.7819" width="180" height="180" rx="32" fill="white"/>
<rect x="41.224" y="37.2819" width="179" height="179" rx="31.5" stroke="#D9D9D9"/>
</g>
<path d="M174.671 105.79C174.67 104.113 174.312 102.631 173.586 101.359C172.874 100.109 171.807 99.0606 170.376 98.2319C158.563 91.4204 146.738 84.6298 134.929 77.8113C131.745 75.9733 128.659 76.0403 125.498 77.9047C120.797 80.6777 97.2555 94.1649 90.2405 98.228C87.3516 99.9004 85.9458 102.46 85.9451 105.787C85.9406 119.485 85.9451 133.183 85.9406 146.881C85.9413 148.522 86.2847 149.975 86.978 151.227C87.6908 152.516 88.7726 153.593 90.2367 154.44C97.252 158.503 120.796 171.989 125.497 174.763C128.659 176.628 131.745 176.695 134.93 174.856C146.74 168.038 158.565 161.247 170.38 154.436C171.844 153.589 172.926 152.511 173.638 151.224C174.331 149.971 174.675 148.518 174.675 146.878C174.675 146.878 174.675 119.488 174.671 105.79Z" fill="#5C8DBC"/>
<path d="M130.444 126.201L86.978 151.227C87.6908 152.516 88.7726 153.593 90.2367 154.44C97.252 158.503 120.796 171.989 125.497 174.763C128.659 176.629 131.745 176.695 134.93 174.857C146.74 168.038 158.565 161.247 170.38 154.436C171.844 153.589 172.926 152.511 173.639 151.224L130.444 126.201Z" fill="#1A4674"/>
<path d="M117.57 133.614C120.099 138.029 124.854 141.007 130.308 141.007C135.796 141.007 140.578 137.991 143.094 133.529L130.444 126.201L117.57 133.614Z" fill="#1A4674"/>
<path d="M174.671 105.79C174.67 104.113 174.312 102.631 173.586 101.359L130.444 126.201L173.638 151.224C174.331 149.971 174.675 148.518 174.675 146.878C174.675 146.878 174.675 119.488 174.671 105.79Z" fill="#1B598E"/>
<path d="M172.296 127.989H168.92V131.365H165.544V127.989H162.169V124.614H165.544V121.239H168.92V124.614H172.296V127.989ZM159.979 127.989H156.604V131.365H153.229V127.989H149.854V124.614H153.229V121.239H156.604V124.614H159.979V127.989Z" fill="white"/>
<path d="M143.094 133.529C140.578 137.991 135.796 141.007 130.308 141.007C124.854 141.007 120.099 138.029 117.57 133.614C116.299 131.398 115.632 128.888 115.635 126.334C115.635 118.23 122.204 111.661 130.308 111.661C135.727 111.661 140.457 114.602 142.999 118.972L155.824 111.587C150.727 102.787 141.209 96.8668 130.308 96.8668C114.033 96.8668 100.841 110.06 100.841 126.334C100.841 131.673 102.261 136.68 104.743 140.998C109.828 149.845 119.373 155.801 130.308 155.801C141.264 155.801 150.823 149.821 155.901 140.948L143.094 133.529Z" fill="white"/>
<defs>
<filter id="filter0_d_25_417" x="0.723999" y="0.78186" width="260" height="260" filterUnits="userSpaceOnUse" color-interpolation-filters="sRGB">
<feFlood flood-opacity="0" result="BackgroundImageFix"/>
<feColorMatrix in="SourceAlpha" type="matrix" values="0 0 0 0 0 0 0 0 0 0 0 0 0 0 0 0 0 0 127 0" result="hardAlpha"/>
<feOffset dy="4"/>
<feGaussianBlur stdDeviation="20"/>
<feComposite in2="hardAlpha" operator="out"/>
<feColorMatrix type="matrix" values="0 0 0 0 0.0367917 0 0 0 0 0.0348958 0 0 0 0 0.0484375 0 0 0 0.1 0"/>
<feBlend mode="normal" in2="BackgroundImageFix" result="effect1_dropShadow_25_417"/>
<feBlend mode="normal" in="SourceGraphic" in2="effect1_dropShadow_25_417" result="shape"/>
</filter>
</defs>
</svg>
