<svg width="260" height="260" viewBox="0 0 260 260" fill="none" xmlns="http://www.w3.org/2000/svg">
<g filter="url(#filter0_d_4102_47)">
<rect x="40" y="36" width="180" height="180" rx="32" fill="white"/>
<rect x="40.5" y="36.5" width="179" height="179" rx="31.5" stroke="#D9D9D9"/>
</g>
<path d="M165.75 76H94C89 76 85 80 85 85V167C85 172 89 176 94 176H165.75C170.75 176 174.75 172 174.75 167V85C174.75 80 170.75 76 165.75 76ZM169.75 167C169.75 169.25 168 171 165.75 171H94C91.75 171 90 169.25 90 167V85C90 82.75 91.75 81 94 81H165.75C168 81 169.75 82.75 169.75 85V167ZM107.5 161L118.75 151L107.5 141V161ZM148 120.5C146 118.5 142.25 116 136 116C129.25 116 122.25 117.75 117.25 119.5V91H107.25V134.25L114.25 131C114.25 131 125.75 125.75 135.75 125.75C140.75 125.75 142 128.5 142 131V161H152V131C152.25 130.25 152.25 124.75 148 120.5ZM134.75 107.25H144.75C149.25 102 151.5 96.75 152.25 91H142.25C141.25 96.75 138.75 102 134.75 107.25Z" fill="#9C46BA"/>
<defs>
<filter id="filter0_d_4102_47" x="0" y="0" width="260" height="260" filterUnits="userSpaceOnUse" color-interpolation-filters="sRGB">
<feFlood flood-opacity="0" result="BackgroundImageFix"/>
<feColorMatrix in="SourceAlpha" type="matrix" values="0 0 0 0 0 0 0 0 0 0 0 0 0 0 0 0 0 0 127 0" result="hardAlpha"/>
<feOffset dy="4"/>
<feGaussianBlur stdDeviation="20"/>
<feComposite in2="hardAlpha" operator="out"/>
<feColorMatrix type="matrix" values="0 0 0 0 0.0367917 0 0 0 0 0.0348958 0 0 0 0 0.0484375 0 0 0 0.1 0"/>
<feBlend mode="normal" in2="BackgroundImageFix" result="effect1_dropShadow_4102_47"/>
<feBlend mode="normal" in="SourceGraphic" in2="effect1_dropShadow_4102_47" result="shape"/>
</filter>
</defs>
</svg>
