<svg width="261" height="261" viewBox="0 0 261 261" fill="none" xmlns="http://www.w3.org/2000/svg">
<g filter="url(#filter0_d_25_402)">
<rect x="40.724" y="36.0789" width="180" height="180" rx="32" fill="white"/>
<rect x="41.224" y="36.5789" width="179" height="179" rx="31.5" stroke="#D9D9D9"/>
</g>
<path d="M178.384 135.575C177.803 133.81 176.28 132.58 174.31 132.285C173.381 132.146 172.318 132.205 171.059 132.465C168.866 132.919 167.238 133.092 166.05 133.125C170.534 125.535 174.179 116.879 176.278 108.732C179.671 95.5568 177.858 89.5549 175.739 86.8401C170.131 79.6543 161.948 75.7941 152.078 75.676C146.812 75.6114 142.189 76.6539 139.778 77.4037C137.532 77.0064 135.118 76.7846 132.585 76.7436C127.837 76.6676 123.641 77.7056 120.057 79.8389C118.072 79.1659 114.887 78.2172 111.208 77.6118C102.557 76.1875 95.584 77.2973 90.4837 80.9103C84.3078 85.2848 81.4449 92.8853 81.9744 103.501C82.1425 106.871 84.0227 117.125 86.983 126.851C88.6843 132.44 90.4985 137.082 92.3752 140.649C95.0367 145.706 97.8845 148.684 101.082 149.753C102.873 150.352 106.129 150.771 109.553 147.911C109.987 148.438 110.567 148.962 111.335 149.448C112.311 150.066 113.505 150.57 114.696 150.869C118.992 151.946 123.015 151.676 126.448 150.167C126.469 150.779 126.485 151.364 126.499 151.869C126.522 152.689 126.544 153.492 126.574 154.243C126.778 159.322 127.122 163.272 128.144 166.035C128.2 166.187 128.275 166.419 128.355 166.665C128.864 168.229 129.716 170.847 131.883 172.898C134.127 175.022 136.842 175.673 139.328 175.673C140.575 175.673 141.764 175.509 142.808 175.285C146.527 174.485 150.751 173.268 153.807 168.905C156.696 164.78 158.1 158.568 158.355 148.779C158.387 148.502 158.418 148.238 158.447 147.986L158.508 147.469L159.188 147.529L159.364 147.541C163.152 147.714 167.784 146.908 170.629 145.583C172.877 144.537 180.08 140.724 178.384 135.575Z" fill="black"/>
<path d="M171.907 136.576C160.643 138.907 159.868 135.082 159.868 135.082C171.761 117.386 176.733 94.9241 172.443 89.4265C160.738 74.4302 140.476 81.5226 140.138 81.7064L140.03 81.7261C137.804 81.2628 135.314 80.987 132.514 80.9411C127.418 80.8575 123.552 82.281 120.618 84.5119C120.618 84.5119 84.4738 69.5806 86.155 103.291C86.5126 110.462 96.4055 157.553 108.205 143.33C112.518 138.128 116.685 133.731 116.685 133.731C118.755 135.109 121.233 135.813 123.83 135.56L124.032 135.388C123.969 136.034 123.998 136.666 124.113 137.414C121.073 140.819 121.966 141.417 115.89 142.671C109.741 143.942 113.353 146.204 115.711 146.796C118.57 147.513 125.185 148.528 129.654 142.254L129.476 142.97C130.667 143.927 131.503 149.193 131.363 153.966C131.223 158.74 131.129 162.017 132.067 164.577C133.006 167.136 133.942 172.896 141.93 171.18C148.605 169.745 152.064 166.028 152.545 159.828C152.887 155.42 153.66 156.071 153.708 152.13L154.328 150.265C155.043 144.289 154.442 142.362 158.554 143.258L159.554 143.346C162.58 143.484 166.542 142.858 168.867 141.774C173.873 139.445 176.843 135.554 171.906 136.576H171.907Z" fill="#336791"/>
<path d="M122.734 106.498C121.719 106.356 120.799 106.487 120.334 106.84C120.073 107.039 119.992 107.269 119.97 107.427C119.912 107.847 120.205 108.311 120.385 108.55C120.895 109.228 121.639 109.694 122.376 109.796C122.483 109.811 122.59 109.818 122.695 109.818C123.924 109.818 125.042 108.858 125.141 108.15C125.264 107.263 123.979 106.672 122.734 106.498V106.498ZM156.361 106.526C156.264 105.83 155.03 105.632 153.858 105.795C152.689 105.959 151.555 106.488 151.65 107.185C151.725 107.727 152.701 108.652 153.857 108.652C153.954 108.652 154.053 108.646 154.152 108.632C154.923 108.525 155.489 108.034 155.758 107.751C156.167 107.319 156.404 106.838 156.361 106.526Z" fill="white"/>
<path d="M175.655 136.312C175.225 135.009 173.843 134.591 171.546 135.066C164.727 136.477 162.285 135.5 161.483 134.908C166.783 126.81 171.144 117.022 173.496 107.89C174.611 103.564 175.226 99.5466 175.277 96.272C175.332 92.678 174.722 90.0369 173.463 88.4235C168.387 81.9194 160.937 78.4306 151.919 78.3349C145.719 78.265 140.481 79.856 139.465 80.3034C137.327 79.7702 134.996 79.4428 132.458 79.401C127.804 79.3254 123.78 80.4428 120.45 82.7204C119.003 82.1804 115.264 80.8932 110.691 80.1545C102.786 78.8784 96.504 79.8454 92.0211 83.03C86.672 86.8302 84.2026 93.6233 84.6809 103.22C84.8419 106.449 86.6766 116.381 89.5717 125.893C93.3827 138.413 97.5255 145.5 101.884 146.958C102.394 147.129 102.983 147.248 103.631 147.248C105.221 147.248 107.171 146.53 109.199 144.084C111.673 141.108 114.232 138.205 116.873 135.377C118.586 136.299 120.469 136.814 122.394 136.866C122.398 136.916 122.403 136.967 122.407 137.017C122.076 137.413 121.751 137.815 121.434 138.223C120.1 139.921 119.822 140.275 115.528 141.161C114.307 141.414 111.063 142.084 111.015 144.365C110.964 146.856 114.85 147.902 115.293 148.013C116.836 148.401 118.322 148.592 119.74 148.592C123.188 148.592 126.222 147.455 128.647 145.257C128.572 154.139 128.941 162.891 130.005 165.557C130.876 167.74 133.004 173.075 139.725 173.075C140.711 173.075 141.797 172.96 142.991 172.703C150.006 171.195 153.052 168.086 154.23 161.232C154.861 157.569 155.943 148.822 156.452 144.13C157.526 144.466 158.909 144.62 160.404 144.62C163.522 144.62 167.12 143.955 169.376 142.905C171.911 141.725 176.484 138.828 175.655 136.312ZM158.95 104.606C158.927 105.991 158.736 107.249 158.535 108.561C158.318 109.973 158.094 111.433 158.037 113.205C157.982 114.929 158.196 116.721 158.404 118.455C158.824 121.957 159.254 125.562 157.587 129.119C157.31 128.627 157.064 128.119 156.849 127.597C156.642 127.093 156.192 126.284 155.569 125.164C153.145 120.806 147.469 110.599 150.375 106.434C151.24 105.195 153.437 103.92 158.95 104.606ZM152.267 81.1397C160.347 81.3186 166.739 84.3498 171.264 90.1485C174.735 94.5963 170.913 114.835 159.849 132.294C159.738 132.152 159.626 132.011 159.513 131.87L159.373 131.695C162.232 126.96 161.673 122.275 161.176 118.121C160.971 116.417 160.778 114.807 160.827 113.295C160.878 111.692 161.089 110.317 161.294 108.988C161.545 107.35 161.801 105.655 161.73 103.656C161.783 103.447 161.804 103.199 161.776 102.905C161.596 100.989 159.415 95.2545 154.968 90.0642C152.536 87.2252 148.989 84.0482 144.146 81.9054C146.229 81.4724 149.078 81.0687 152.267 81.1397ZM107.053 142.295C104.818 144.989 103.275 144.473 102.767 144.303C99.4609 143.197 95.6242 136.189 92.2416 125.076C89.3146 115.461 87.6041 105.791 87.4685 103.08C87.0413 94.5048 89.1142 88.5287 93.6301 85.3171C100.979 80.0911 113.062 83.2191 117.917 84.8055C117.848 84.8746 117.775 84.9392 117.706 85.0095C109.739 93.0779 109.928 106.863 109.947 107.706C109.947 108.031 109.974 108.491 110.011 109.124C110.148 111.443 110.403 115.758 109.722 120.645C109.088 125.186 110.484 129.631 113.551 132.84C113.866 133.169 114.197 133.482 114.542 133.777C113.177 135.243 110.211 138.485 107.053 142.295ZM115.567 130.903C113.095 128.317 111.972 124.72 112.486 121.033C113.206 115.87 112.94 111.374 112.797 108.959C112.777 108.621 112.76 108.325 112.749 108.091C113.913 107.056 119.307 104.158 123.154 105.042C124.909 105.445 125.978 106.644 126.423 108.705C128.724 119.379 126.728 123.827 125.123 127.402C124.793 128.139 124.48 128.835 124.213 129.555L124.007 130.112C123.483 131.519 122.996 132.828 122.694 134.071C120.066 134.063 117.51 132.937 115.567 130.903V130.903ZM115.97 145.298C115.203 145.106 114.512 144.772 114.108 144.495C114.446 144.335 115.048 144.118 116.091 143.902C121.143 142.86 121.923 142.124 123.627 139.955C124.017 139.457 124.46 138.894 125.073 138.207L125.074 138.206C125.987 137.181 126.405 137.355 127.162 137.67C127.776 137.924 128.374 138.696 128.617 139.545C128.732 139.946 128.86 140.708 128.439 141.3C124.88 146.297 119.694 146.233 115.97 145.298ZM142.406 169.966C136.227 171.294 134.039 168.132 132.597 164.518C131.666 162.184 131.209 151.662 131.533 140.041C131.537 139.886 131.515 139.737 131.473 139.597C131.435 139.319 131.377 139.045 131.3 138.776C130.818 137.085 129.642 135.67 128.231 135.084C127.67 134.851 126.642 134.424 125.405 134.741C125.669 133.652 126.126 132.422 126.622 131.09L126.83 130.529C127.064 129.898 127.358 129.243 127.668 128.551C129.347 124.81 131.647 119.687 129.151 108.114C128.216 103.779 125.095 101.662 120.363 102.154C117.526 102.448 114.93 103.596 113.636 104.254C113.357 104.395 113.103 104.532 112.865 104.665C113.226 100.297 114.591 92.1345 119.698 86.97C122.913 83.7189 127.195 82.1131 132.411 82.1997C142.691 82.3684 149.283 87.6582 153.003 92.0665C156.208 95.8649 157.944 99.6913 158.637 101.755C153.427 101.224 149.884 102.255 148.088 104.83C144.18 110.431 150.226 121.303 153.131 126.527C153.664 127.485 154.124 128.313 154.268 128.664C155.214 130.964 156.439 132.499 157.334 133.619C157.608 133.962 157.874 134.295 158.076 134.586C156.498 135.043 153.664 136.096 153.922 141.365C153.714 144.008 152.233 156.384 151.48 160.757C150.487 166.533 148.367 168.685 142.406 169.967V169.966ZM168.201 140.367C166.587 141.117 163.887 141.681 161.322 141.802C158.489 141.935 157.047 141.484 156.708 141.206C156.548 137.923 157.767 137.58 159.057 137.217C159.259 137.16 159.457 137.104 159.648 137.037C159.766 137.134 159.896 137.23 160.039 137.324C162.316 138.831 166.377 138.994 172.111 137.807L172.174 137.795C171.4 138.52 170.077 139.493 168.201 140.367Z" fill="white"/>
<defs>
<filter id="filter0_d_25_402" x="0.723999" y="0.0788574" width="260" height="260" filterUnits="userSpaceOnUse" color-interpolation-filters="sRGB">
<feFlood flood-opacity="0" result="BackgroundImageFix"/>
<feColorMatrix in="SourceAlpha" type="matrix" values="0 0 0 0 0 0 0 0 0 0 0 0 0 0 0 0 0 0 127 0" result="hardAlpha"/>
<feOffset dy="4"/>
<feGaussianBlur stdDeviation="20"/>
<feComposite in2="hardAlpha" operator="out"/>
<feColorMatrix type="matrix" values="0 0 0 0 0.0367917 0 0 0 0 0.0348958 0 0 0 0 0.0484375 0 0 0 0.1 0"/>
<feBlend mode="normal" in2="BackgroundImageFix" result="effect1_dropShadow_25_402"/>
<feBlend mode="normal" in="SourceGraphic" in2="effect1_dropShadow_25_402" result="shape"/>
</filter>
</defs>
</svg>
