<svg width="261" height="261" viewBox="0 0 261 261" fill="none" xmlns="http://www.w3.org/2000/svg">
<g filter="url(#filter0_d_25_409)">
<rect x="40.724" y="36.0789" width="180" height="180" rx="32" fill="white"/>
<rect x="41.224" y="36.5789" width="179" height="179" rx="31.5" stroke="#D9D9D9"/>
</g>
<path d="M170.125 95.113C164.08 87.2856 155.85 81.4267 146.476 78.277C137.101 75.1274 127.003 74.8286 117.458 77.4184C107.914 80.0082 99.3519 85.3702 92.855 92.8264C86.3581 100.283 82.2183 109.498 80.9592 119.307C79.7001 129.116 81.3781 139.078 85.7812 147.934C90.1842 156.789 97.1144 164.14 105.695 169.056C114.276 173.973 124.123 176.234 133.989 175.554C143.855 174.875 153.298 171.284 161.124 165.237C182.967 148.356 186.998 116.964 170.123 95.113H170.125Z" fill="#FF6C37"/>
<path d="M147.416 107.532L126.333 128.781L120.375 122.657C141.125 101.907 143.208 103.782 147.417 107.532H147.416Z" fill="white"/>
<path d="M126.333 129.363C126.146 129.358 125.968 129.284 125.833 129.155L119.833 123.155C119.698 123.015 119.623 122.828 119.623 122.634C119.623 122.439 119.698 122.253 119.833 122.113C140.291 101.655 143.083 102.613 147.916 106.988C147.997 107.053 148.061 107.135 148.105 107.229C148.148 107.324 148.169 107.426 148.166 107.53C148.197 107.733 148.119 107.941 147.958 108.072L126.875 129.156C126.728 129.292 126.534 129.366 126.333 129.364V129.363ZM121.416 122.655L126.333 127.572L146.333 107.572C145.642 106.707 144.657 106.126 143.565 105.942C142.474 105.757 141.352 105.982 140.416 106.572C136.791 108.197 130.958 113.155 121.416 122.655Z" fill="#FF6C37"/>
<path d="M132.375 134.656L126.625 128.781L147.708 107.947C153.375 113.489 144.958 122.739 132.375 134.655V134.656Z" fill="white"/>
<path d="M132.375 135.406C132.191 135.392 132.016 135.319 131.875 135.198L126 129.449C125.912 129.235 125.912 128.995 126 128.781C125.938 128.606 125.938 128.414 126 128.239L147.083 107.157C147.23 107.019 147.423 106.942 147.624 106.942C147.826 106.942 148.019 107.019 148.166 107.157C148.849 107.785 149.388 108.553 149.747 109.409C150.107 110.264 150.278 111.187 150.249 112.114C150.249 117.739 143.832 124.822 132.916 135.156C132.77 135.301 132.578 135.389 132.374 135.406H132.375ZM127.708 128.781L132.416 133.488C140.749 125.613 148.708 117.488 148.749 111.988C148.794 110.822 148.409 109.68 147.666 108.78L127.708 128.781Z" fill="#FF6C37"/>
<path d="M120.541 122.781L124.708 126.949C124.735 126.972 124.756 127.001 124.771 127.033C124.785 127.066 124.793 127.101 124.793 127.136C124.793 127.172 124.785 127.207 124.771 127.239C124.756 127.271 124.735 127.3 124.708 127.324L115.916 129.199C115.739 129.237 115.553 129.216 115.389 129.14C115.224 129.063 115.089 128.935 115.004 128.774C114.919 128.614 114.889 128.43 114.918 128.251C114.948 128.071 115.035 127.907 115.166 127.781L120.291 122.699C120.291 122.699 120.458 122.699 120.541 122.781Z" fill="white"/>
<path d="M115.708 130.031C115.43 130.028 115.158 129.953 114.917 129.815C114.677 129.676 114.476 129.478 114.333 129.239C114.173 128.937 114.115 128.591 114.168 128.253C114.22 127.915 114.381 127.603 114.625 127.364L119.708 122.239C119.891 122.075 120.129 121.985 120.375 121.985C120.62 121.985 120.858 122.075 121.041 122.239L125.208 126.406C125.455 126.641 125.552 126.995 125.458 127.324C125.364 127.652 125.089 127.913 124.75 127.991L115.958 129.866L115.708 130.031ZM120.375 123.699L115.668 128.406L123.46 126.739L120.375 123.699Z" fill="#FF6C37"/>
<path d="M158.625 95.8223C155.61 92.913 150.872 92.7911 147.709 95.5364C144.547 98.2817 144.006 102.994 146.469 106.385C148.931 109.775 153.574 110.725 157.167 108.572L151.5 102.905L158.625 95.8223Z" fill="white"/>
<path d="M153 110.488C151.268 110.466 149.58 109.934 148.147 108.959C146.715 107.985 145.601 106.61 144.944 105.007C144.288 103.404 144.115 101.645 144.449 99.946C144.782 98.247 145.606 96.6829 146.819 95.4474C148.487 93.8098 150.731 92.8924 153.069 92.8924C155.407 92.8924 157.651 93.8098 159.319 95.4474C159.478 95.5817 159.569 95.7802 159.569 95.9895C159.569 96.0926 159.546 96.1943 159.503 96.2878C159.46 96.3814 159.397 96.4645 159.319 96.5317L152.569 102.907L157.694 107.949C157.777 108.028 157.839 108.127 157.876 108.235C157.912 108.344 157.921 108.461 157.902 108.574C157.889 108.683 157.853 108.788 157.796 108.882C157.738 108.976 157.661 109.056 157.569 109.116C156.192 109.977 154.609 110.451 152.986 110.491L153 110.488ZM153 94.3208C150.031 94.3364 147.375 96.1224 146.261 98.852C145.147 101.582 145.753 104.724 147.835 106.821C148.87 107.862 150.195 108.566 151.638 108.841C153.08 109.117 154.572 108.95 155.917 108.363L151 103.446C150.922 103.383 150.859 103.304 150.816 103.214C150.772 103.124 150.75 103.025 150.75 102.925C150.75 102.825 150.772 102.726 150.816 102.636C150.859 102.545 150.922 102.466 151 102.404L157.5 95.8614C156.208 94.8712 154.628 94.3297 153 94.3192V94.3208Z" fill="#FF6C37"/>
<path d="M158.75 95.9473L151.625 103.03L157.292 108.697C157.863 108.37 158.394 107.978 158.875 107.53C160.36 105.96 161.178 103.874 161.154 101.713C161.131 99.5523 160.269 97.4848 158.75 95.9473Z" fill="white"/>
<path d="M157.166 109.322C157.072 109.327 156.979 109.311 156.892 109.275C156.805 109.239 156.728 109.184 156.666 109.114L150.999 103.447C150.92 103.385 150.857 103.306 150.814 103.215C150.771 103.125 150.748 103.026 150.748 102.926C150.748 102.826 150.771 102.727 150.814 102.637C150.857 102.547 150.92 102.468 150.999 102.405L158.081 95.4474C158.15 95.3442 158.243 95.2596 158.352 95.2011C158.461 95.1426 158.583 95.1119 158.706 95.1119C158.83 95.1119 158.952 95.1426 159.061 95.2011C159.17 95.2596 159.263 95.3442 159.331 95.4474C160.163 96.262 160.823 97.2345 161.274 98.3077C161.725 99.3808 161.958 100.533 161.958 101.697C161.958 102.861 161.725 104.014 161.274 105.087C160.823 106.16 160.163 107.133 159.331 107.947C158.841 108.468 158.28 108.916 157.664 109.28C157.509 109.358 157.33 109.373 157.164 109.322H157.166ZM152.583 102.907L157.291 107.614C157.615 107.387 157.921 107.137 158.208 106.864C159.592 105.484 160.371 103.611 160.375 101.657C160.378 99.9076 159.741 98.2178 158.583 96.9067L152.583 102.907Z" fill="#FF6C37"/>
<path d="M148.291 108.407C147.726 107.877 146.981 107.582 146.207 107.582C145.433 107.582 144.688 107.877 144.124 108.407L125.25 127.238L128.375 130.405L148.333 112.905C148.637 112.613 148.879 112.262 149.042 111.874C149.206 111.485 149.288 111.067 149.284 110.646C149.281 110.224 149.19 109.808 149.019 109.423C148.849 109.037 148.601 108.691 148.291 108.405V108.407Z" fill="white"/>
<path d="M128.208 131.156C128.021 131.152 127.843 131.078 127.708 130.949L124.541 127.781C124.406 127.642 124.33 127.455 124.33 127.26C124.33 127.066 124.406 126.879 124.541 126.739L143.416 107.947C143.96 107.404 144.654 107.037 145.409 106.893C146.163 106.75 146.944 106.836 147.649 107.142C148.354 107.447 148.951 107.957 149.363 108.606C149.775 109.255 149.982 110.012 149.958 110.78C149.936 111.301 149.811 111.813 149.589 112.285C149.367 112.757 149.053 113.181 148.666 113.53L128.708 131.03C128.563 131.133 128.385 131.177 128.208 131.155V131.156ZM126 127.238L128.083 129.363L147.666 112.321C148.15 111.899 148.439 111.296 148.458 110.653C148.477 110.011 148.224 109.383 147.75 108.946C147.313 108.51 146.721 108.266 146.104 108.266C145.487 108.266 144.895 108.51 144.458 108.946L126 127.238Z" fill="#FF6C37"/>
<path d="M110.625 148.697C110.572 148.769 110.543 148.857 110.543 148.947C110.543 149.037 110.572 149.124 110.625 149.197L111.458 152.822C111.492 153.035 111.46 153.254 111.368 153.449C111.275 153.644 111.126 153.806 110.94 153.916C110.754 154.024 110.539 154.071 110.325 154.049C110.111 154.028 109.909 153.939 109.749 153.795L104.041 148.295L121.833 130.363H128L132.167 134.53C125.667 140.213 118.419 144.98 110.625 148.697Z" fill="white"/>
<path d="M110.251 154.822C109.779 154.812 109.313 154.619 109.001 154.28L103.543 148.822C103.465 148.759 103.401 148.68 103.358 148.59C103.315 148.5 103.292 148.401 103.292 148.301C103.292 148.201 103.315 148.102 103.358 148.012C103.401 147.922 103.465 147.842 103.543 147.78L121.458 129.822C121.559 129.715 121.69 129.643 121.833 129.614H128.041C128.203 129.557 128.379 129.557 128.541 129.614L132.708 133.781C132.787 133.854 132.848 133.946 132.884 134.047C132.92 134.149 132.931 134.257 132.916 134.364C132.919 134.468 132.898 134.571 132.854 134.665C132.811 134.759 132.747 134.841 132.666 134.906L132.333 135.199C125.807 140.64 118.626 145.244 110.958 148.906L111.751 152.281C111.812 152.542 111.814 152.812 111.757 153.074C111.701 153.335 111.586 153.58 111.423 153.792C111.259 154.004 111.05 154.176 110.811 154.297C110.573 154.417 110.31 154.483 110.043 154.489L110.251 154.822ZM105.168 148.28L110.083 153.237C110.129 153.278 110.188 153.301 110.25 153.301C110.311 153.301 110.37 153.278 110.416 153.237C110.447 153.195 110.463 153.144 110.463 153.091C110.463 153.039 110.447 152.988 110.416 152.945L109.583 149.32C109.518 149.06 109.544 148.785 109.658 148.542C109.772 148.299 109.966 148.103 110.208 147.988C117.67 144.375 124.665 139.869 131.041 134.57L127.624 131.153H122.041L105.168 148.28Z" fill="#FF6C37"/>
<path d="M99.7506 152.572L103.918 148.405L110.335 154.822L100.127 154.114C99.9519 154.1 99.7854 154.031 99.6516 153.918C99.5177 153.804 99.4232 153.65 99.3816 153.479C99.3401 153.309 99.3535 153.129 99.42 152.966C99.4866 152.804 99.6028 152.666 99.7521 152.573L99.7506 152.572Z" fill="white"/>
<path d="M110.458 155.447L100.291 154.739C99.6881 154.683 99.1694 154.27 98.9569 153.719C98.7444 153.167 98.8741 152.512 99.2912 152.072L103.458 147.905C103.598 147.77 103.785 147.694 103.979 147.694C104.174 147.694 104.361 147.77 104.501 147.905L110.875 154.28C110.964 154.401 111.011 154.546 111.011 154.696C111.011 154.846 110.964 154.992 110.875 155.112C110.779 155.268 110.632 155.386 110.458 155.445V155.447ZM100.291 153.114L108.624 153.656L104.041 149.364L100.291 153.114Z" fill="#FF6C37"/>
<path d="M128.583 130.866L120.166 132.158L125.041 127.325L128.583 130.866Z" fill="white"/>
<path d="M120.166 132.947C120.026 132.951 119.888 132.913 119.77 132.839C119.651 132.765 119.557 132.657 119.499 132.53C119.41 132.409 119.362 132.263 119.362 132.113C119.362 131.964 119.41 131.818 119.499 131.697L124.332 126.822C124.478 126.684 124.672 126.608 124.873 126.608C125.074 126.608 125.268 126.684 125.414 126.822L128.958 130.363C129.029 130.475 129.066 130.605 129.066 130.738C129.066 130.87 129.029 131 128.958 131.113C128.923 131.25 128.85 131.373 128.746 131.47C128.643 131.566 128.514 131.63 128.375 131.655L120.043 132.947H120.166ZM125.041 128.405L122.333 131.113L127 130.405L125.041 128.405Z" fill="#FF6C37"/>
<path d="M128.583 130.863L122.708 131.613C122.551 131.648 122.386 131.632 122.239 131.567C122.092 131.502 121.969 131.391 121.89 131.251C121.81 131.111 121.778 130.948 121.798 130.788C121.818 130.628 121.889 130.479 122 130.363L125.042 127.32L128.583 130.863Z" fill="white"/>
<path d="M122.541 132.406C122.269 132.404 122.002 132.329 121.768 132.19C121.534 132.051 121.341 131.852 121.208 131.614C121.049 131.329 120.987 131 121.033 130.676C121.078 130.353 121.227 130.053 121.458 129.822L124.5 126.78C124.647 126.642 124.841 126.565 125.042 126.565C125.243 126.565 125.437 126.642 125.583 126.78L129.125 130.322C129.231 130.422 129.305 130.55 129.339 130.691C129.373 130.832 129.365 130.98 129.316 131.117C129.268 131.254 129.181 131.374 129.066 131.462C128.951 131.55 128.812 131.603 128.668 131.614L122.835 132.364L122.541 132.406ZM122.541 130.864L126.958 130.322L125 128.364L122.5 130.864H122.541ZM158.791 100.739C158.712 100.608 158.588 100.51 158.442 100.464C158.296 100.418 158.138 100.427 157.999 100.489C157.93 100.524 157.868 100.573 157.818 100.632C157.768 100.691 157.731 100.759 157.708 100.833C157.662 100.982 157.676 101.143 157.749 101.282C158.041 101.896 157.959 102.622 157.541 103.157C157.489 103.208 157.448 103.27 157.421 103.338C157.394 103.406 157.382 103.479 157.384 103.552C157.386 103.698 157.442 103.839 157.541 103.947C157.648 103.989 157.767 103.989 157.874 103.947C157.971 103.972 158.072 103.969 158.168 103.939C158.264 103.91 158.349 103.855 158.416 103.78C158.759 103.36 158.976 102.851 159.042 102.313C159.109 101.775 159.022 101.229 158.791 100.738V100.739Z" fill="#FF6C37"/>
<defs>
<filter id="filter0_d_25_409" x="0.723999" y="0.0788574" width="260" height="260" filterUnits="userSpaceOnUse" color-interpolation-filters="sRGB">
<feFlood flood-opacity="0" result="BackgroundImageFix"/>
<feColorMatrix in="SourceAlpha" type="matrix" values="0 0 0 0 0 0 0 0 0 0 0 0 0 0 0 0 0 0 127 0" result="hardAlpha"/>
<feOffset dy="4"/>
<feGaussianBlur stdDeviation="20"/>
<feComposite in2="hardAlpha" operator="out"/>
<feColorMatrix type="matrix" values="0 0 0 0 0.0367917 0 0 0 0 0.0348958 0 0 0 0 0.0484375 0 0 0 0.1 0"/>
<feBlend mode="normal" in2="BackgroundImageFix" result="effect1_dropShadow_25_409"/>
<feBlend mode="normal" in="SourceGraphic" in2="effect1_dropShadow_25_409" result="shape"/>
</filter>
</defs>
</svg>
