<svg width="260" height="260" viewBox="0 0 260 260" fill="none" xmlns="http://www.w3.org/2000/svg">
<g filter="url(#filter0_d_4102_10)">
<rect x="40" y="36" width="180" height="180" rx="32" fill="white"/>
<rect x="40.5" y="36.5" width="179" height="179" rx="31.5" stroke="#D9D9D9"/>
</g>
<path d="M88 162H123.582C123.582 162 116.781 121.989 139.302 105.787C144.211 102.71 159.84 91.2115 185.424 115.601C186.234 114.73 187 114.033 187 114.033C187 114.033 163.579 83.8945 137.5 87.2626C124.393 88.7725 108.268 104.161 98.8098 124.486C89.3512 144.811 88 162 88 162Z" fill="#CC0000"/>
<path d="M88 162H123.582C123.582 162 116.781 121.989 139.302 105.787C144.211 102.71 159.84 91.2115 185.424 115.601C186.234 114.73 187 114.033 187 114.033C187 114.033 163.579 83.8945 137.5 87.2626C124.393 88.7725 108.268 104.161 98.8098 124.486C89.3512 144.811 88 162 88 162Z" fill="#CC0000"/>
<path d="M88 163H123.582C123.582 163 116.781 122.683 139.302 106.358C144.211 103.257 159.84 91.6707 185.424 116.247C186.234 115.369 187 114.667 187 114.667C187 114.667 163.579 84.2978 137.5 87.6917C124.348 89.2131 108.223 104.719 98.7648 125.2C89.3062 145.68 88 163 88 163ZM162.137 90.9685L162.318 87.048C161.912 86.7554 160.786 86.0533 157.949 85L157.768 88.862C159.255 89.5056 160.696 90.2078 162.137 90.9685Z" fill="#CC0000"/>
<path d="M157.568 102.651L157.389 106.308C158.866 106.366 160.344 106.598 161.821 107.004L162 103.406C160.478 102.999 159.001 102.767 157.568 102.651ZM141.004 84.5408H141.452L140.556 81C139.169 81 137.736 81.1161 136.259 81.3483L137.109 84.773C138.408 84.5988 139.706 84.5408 141.004 84.5408ZM143.153 105.902L144.183 109.907C145.481 109.094 146.779 108.398 148.077 107.875L147.092 104.044C145.57 104.625 144.272 105.263 143.153 105.902ZM122.828 90.6356L120.814 86.6304C119.695 87.385 118.531 88.1976 117.322 89.1264L119.381 93.1896C120.545 92.2608 121.665 91.3902 122.828 90.6356ZM132.006 116.756L134.155 120.935C134.916 119.484 135.811 118.149 136.796 116.814L134.781 112.867C133.752 114.086 132.812 115.421 132.006 116.756ZM125.515 135.447L129.141 139.162C129.32 136.898 129.633 134.634 130.081 132.37L126.858 129.062C126.276 131.209 125.873 133.357 125.515 135.447ZM105.906 107.875L102.728 104.276C101.564 105.727 100.445 107.179 99.4151 108.63L102.862 112.461C103.802 110.893 104.832 109.326 105.906 107.875ZM92.3866 133.821L87.2384 131.384C86.3878 133.88 85.4477 136.782 85 138.349L90.1483 140.787C90.7302 138.813 91.6703 135.969 92.3866 133.821ZM124.843 150.19C124.933 153.267 125.156 155.763 125.38 157.504L130.752 160C130.349 157.736 129.947 155.182 129.678 152.454L124.843 150.19Z" fill="#CC0000"/>
<defs>
<filter id="filter0_d_4102_10" x="0" y="0" width="260" height="260" filterUnits="userSpaceOnUse" color-interpolation-filters="sRGB">
<feFlood flood-opacity="0" result="BackgroundImageFix"/>
<feColorMatrix in="SourceAlpha" type="matrix" values="0 0 0 0 0 0 0 0 0 0 0 0 0 0 0 0 0 0 127 0" result="hardAlpha"/>
<feOffset dy="4"/>
<feGaussianBlur stdDeviation="20"/>
<feComposite in2="hardAlpha" operator="out"/>
<feColorMatrix type="matrix" values="0 0 0 0 0.0367917 0 0 0 0 0.0348958 0 0 0 0 0.0484375 0 0 0 0.1 0"/>
<feBlend mode="normal" in2="BackgroundImageFix" result="effect1_dropShadow_4102_10"/>
<feBlend mode="normal" in="SourceGraphic" in2="effect1_dropShadow_4102_10" result="shape"/>
</filter>
</defs>
</svg>
