<svg width="260" height="260" viewBox="0 0 260 260" fill="none" xmlns="http://www.w3.org/2000/svg">
<g filter="url(#filter0_d_4102_43)">
<rect x="40" y="36" width="180" height="180" rx="32" fill="white"/>
<rect x="40.5" y="36.5" width="179" height="179" rx="31.5" stroke="#D9D9D9"/>
</g>
<path d="M176.082 148.765C170.745 151.547 143.1 162.914 137.214 165.982C131.329 169.051 128.059 169.021 123.41 166.798C118.761 164.576 89.341 152.692 84.0414 150.159C81.393 148.893 80 147.825 80 146.815V136.707C80 136.707 118.301 128.37 124.484 126.151C130.667 123.933 132.812 123.853 138.074 125.78C143.336 127.708 174.8 133.385 180 135.289L179.998 145.254C179.998 146.254 178.798 147.35 176.082 148.765" fill="#912626"/>
<path d="M176.08 138.717C170.744 141.498 143.099 152.865 137.214 155.933C131.329 159.002 128.059 158.972 123.41 156.749C118.76 154.528 89.3418 142.643 84.0426 140.111C78.7434 137.578 78.6325 135.834 83.8379 133.796C89.0434 131.757 118.3 120.279 124.484 118.06C130.667 115.843 132.812 115.762 138.074 117.69C143.336 119.617 170.816 130.555 176.015 132.459C181.217 134.366 181.416 135.936 176.08 138.717" fill="#C6302B"/>
<path d="M176.082 132.41C170.745 135.192 143.1 146.559 137.214 149.628C131.329 152.696 128.059 152.666 123.41 150.443C118.76 148.222 89.341 136.337 84.0414 133.804C81.393 132.538 80 131.471 80 130.461V120.352C80 120.352 118.301 112.015 124.484 109.796C130.667 107.578 132.812 107.498 138.074 109.425C143.337 111.353 174.8 117.028 180 118.934L179.998 128.9C179.998 129.898 178.798 130.995 176.082 132.41Z" fill="#912626"/>
<path d="M176.08 122.362C170.744 125.143 143.099 136.51 137.214 139.579C131.329 142.647 128.059 142.617 123.41 140.394C118.76 138.173 89.3418 126.288 84.0426 123.756C78.7434 121.223 78.6325 119.48 83.8379 117.441C89.0434 115.403 118.301 103.923 124.484 101.705C130.667 99.4874 132.812 99.407 138.074 101.335C143.336 103.262 170.816 114.199 176.015 116.104C181.217 118.01 181.416 119.581 176.08 122.362" fill="#C6302B"/>
<path d="M176.082 115.449C170.745 118.23 143.1 129.597 137.214 132.667C131.329 135.735 128.059 135.705 123.41 133.482C118.76 131.261 89.341 119.375 84.0414 116.843C81.393 115.577 80 114.509 80 113.5V103.391C80 103.391 118.301 95.0538 124.484 92.8359C130.667 90.6171 132.812 90.5374 138.074 92.4648C143.337 94.3925 174.8 100.068 180 101.973L179.998 111.939C179.998 112.937 178.798 114.033 176.082 115.449Z" fill="#912626"/>
<path d="M176.08 105.401C170.744 108.182 143.099 119.549 137.214 122.617C131.328 125.685 128.059 125.655 123.41 123.434C118.761 121.211 89.3418 109.327 84.0429 106.794C78.7433 104.262 78.6328 102.518 83.8379 100.479C89.0433 98.441 118.301 86.9633 124.484 84.7445C130.667 82.5262 132.812 82.4465 138.074 84.3742C143.336 86.3019 170.816 97.2391 176.015 99.1441C181.217 101.049 181.416 102.62 176.08 105.401" fill="#C6302B"/>
<path d="M142.22 95.5675L133.622 96.4601L131.698 101.091L128.589 95.9234L118.661 95.0312L126.069 92.3597L123.846 88.2589L130.782 90.9714L137.32 88.8308L135.553 93.071L142.22 95.5675V95.5675ZM131.184 118.035L115.139 111.38L138.131 107.851L131.184 118.035V118.035ZM108.938 98.1417C115.725 98.1417 121.227 100.275 121.227 102.905C121.227 105.536 115.725 107.669 108.938 107.669C102.151 107.669 96.6492 105.536 96.6492 102.905C96.6492 100.275 102.151 98.1417 108.938 98.1417Z" fill="white"/>
<path d="M152.381 96.8335L165.989 102.211L152.393 107.583L152.381 96.8331" fill="#621B1C"/>
<path d="M137.326 102.789L152.381 96.8336L152.393 107.583L150.916 108.161L137.326 102.789Z" fill="#9A2928"/>
<defs>
<filter id="filter0_d_4102_43" x="0" y="0" width="260" height="260" filterUnits="userSpaceOnUse" color-interpolation-filters="sRGB">
<feFlood flood-opacity="0" result="BackgroundImageFix"/>
<feColorMatrix in="SourceAlpha" type="matrix" values="0 0 0 0 0 0 0 0 0 0 0 0 0 0 0 0 0 0 127 0" result="hardAlpha"/>
<feOffset dy="4"/>
<feGaussianBlur stdDeviation="20"/>
<feComposite in2="hardAlpha" operator="out"/>
<feColorMatrix type="matrix" values="0 0 0 0 0.0367917 0 0 0 0 0.0348958 0 0 0 0 0.0484375 0 0 0 0.1 0"/>
<feBlend mode="normal" in2="BackgroundImageFix" result="effect1_dropShadow_4102_43"/>
<feBlend mode="normal" in="SourceGraphic" in2="effect1_dropShadow_4102_43" result="shape"/>
</filter>
</defs>
</svg>
