<svg width="261" height="261" viewBox="0 0 261 261" fill="none" xmlns="http://www.w3.org/2000/svg">
<g filter="url(#filter0_d_22_653)">
<rect x="40.724" y="36.1879" width="180" height="180" rx="32" fill="white"/>
<rect x="41.224" y="36.6879" width="179" height="179" rx="31.5" stroke="#D9D9D9"/>
</g>
<path d="M150.118 144.617C153.808 144.234 156.608 141.053 156.48 137.235C156.353 133.418 153.172 130.363 149.354 130.363H149.1C145.155 130.491 142.101 133.799 142.228 137.744C142.355 139.653 143.119 141.308 144.264 142.453C139.937 150.979 133.32 157.215 123.394 162.433C116.65 165.996 109.651 167.268 102.652 166.378C96.9256 165.614 92.4717 163.069 89.6717 158.869C85.5998 152.634 85.2182 145.889 88.6541 139.144C91.0721 134.308 94.8893 130.745 97.3072 128.963C96.7982 127.309 96.0346 124.509 95.6529 122.474C77.201 135.836 79.1099 153.906 84.7092 162.433C88.9084 168.796 97.4346 172.741 106.851 172.741C109.396 172.741 111.941 172.486 114.487 171.85C130.775 168.668 143.119 158.997 150.118 144.617ZM172.515 128.836C162.843 117.51 148.591 111.275 132.302 111.275H130.266C129.121 108.984 126.703 107.457 124.031 107.457H123.776C119.831 107.584 116.778 110.893 116.905 114.838C117.032 118.656 120.213 121.71 124.031 121.71H124.285C127.085 121.583 129.503 119.801 130.521 117.383H132.811C142.483 117.383 151.645 120.183 159.917 125.655C166.279 129.854 170.86 135.327 173.405 141.944C175.569 147.289 175.441 152.506 173.151 156.961C169.588 163.705 163.607 167.396 155.717 167.396C150.627 167.396 145.791 165.868 143.246 164.723C141.846 165.996 139.301 168.032 137.519 169.305C142.992 171.85 148.591 173.25 153.935 173.25C166.152 173.25 175.187 166.505 178.623 159.76C182.313 152.379 182.058 139.653 172.515 128.836ZM107.869 146.779C107.997 150.597 111.178 153.651 114.996 153.651H115.25C119.195 153.524 122.249 150.215 122.122 146.27C121.995 142.452 118.813 139.399 114.996 139.399H114.741C114.487 139.399 114.105 139.399 113.851 139.526C108.633 130.872 106.47 121.455 107.233 111.274C107.742 103.639 110.287 97.0212 114.741 91.5489C118.431 86.8404 125.558 84.5497 130.394 84.4228C143.882 84.1681 149.608 100.966 149.99 107.711C151.645 108.093 154.444 108.984 156.353 109.62C154.826 89.0044 142.101 78.3146 129.885 78.3146C118.431 78.3146 107.869 86.5864 103.67 98.8032C97.8162 115.092 101.634 130.745 108.76 143.089C108.124 143.98 107.742 145.38 107.869 146.78V146.779Z" fill="#764ABC"/>
<defs>
<filter id="filter0_d_22_653" x="0.723999" y="0.187866" width="260" height="260" filterUnits="userSpaceOnUse" color-interpolation-filters="sRGB">
<feFlood flood-opacity="0" result="BackgroundImageFix"/>
<feColorMatrix in="SourceAlpha" type="matrix" values="0 0 0 0 0 0 0 0 0 0 0 0 0 0 0 0 0 0 127 0" result="hardAlpha"/>
<feOffset dy="4"/>
<feGaussianBlur stdDeviation="20"/>
<feComposite in2="hardAlpha" operator="out"/>
<feColorMatrix type="matrix" values="0 0 0 0 0.0367917 0 0 0 0 0.0348958 0 0 0 0 0.0484375 0 0 0 0.1 0"/>
<feBlend mode="normal" in2="BackgroundImageFix" result="effect1_dropShadow_22_653"/>
<feBlend mode="normal" in="SourceGraphic" in2="effect1_dropShadow_22_653" result="shape"/>
</filter>
</defs>
</svg>
